<svg width="724" height="576" viewBox="0 0 724 576" fill="none" xmlns="http://www.w3.org/2000/svg">
<path d="M105 0H555L511.5 497H54L105 0Z" fill="#523C3B"/>
<path fill-rule="evenodd" clip-rule="evenodd" d="M537 497L562 203H650.5L723.5 299V497H537ZM573 342.5L582 250.5H622L674.5 320V342.5H573Z" fill="#523C3B"/>
<path d="M681 500C681 530.928 655.928 556 625 556C594.072 556 569 530.928 569 500C569 469.072 594.072 444 625 444C655.928 444 681 469.072 681 500Z" fill="#C22B2D"/>
<path fill-rule="evenodd" clip-rule="evenodd" d="M701 500C701 541.974 666.974 576 625 576C583.026 576 549 541.974 549 500C549 458.026 583.026 424 625 424C666.974 424 701 458.026 701 500ZM625 556C655.928 556 681 530.928 681 500C681 469.072 655.928 444 625 444C594.072 444 569 469.072 569 500C569 530.928 594.072 556 625 556Z" fill="white"/>
<path d="M238 500C238 530.928 212.928 556 182 556C151.072 556 126 530.928 126 500C126 469.072 151.072 444 182 444C212.928 444 238 469.072 238 500Z" fill="#C22B2D"/>
<path fill-rule="evenodd" clip-rule="evenodd" d="M258 500C258 541.974 223.974 576 182 576C140.026 576 106 541.974 106 500C106 458.026 140.026 424 182 424C223.974 424 258 458.026 258 500ZM182 556C212.928 556 238 530.928 238 500C238 469.072 212.928 444 182 444C151.072 444 126 469.072 126 500C126 530.928 151.072 556 182 556Z" fill="white"/>
<path d="M20 63.5C20 56.0442 26.0442 50 33.5 50H237.5C244.956 50 251 56.0442 251 63.5C251 70.9558 244.956 77 237.5 77H33.5C26.0442 77 20 70.9558 20 63.5Z" fill="#C22B2D"/>
<path fill-rule="evenodd" clip-rule="evenodd" d="M33.5 30H237.5C256.002 30 271 44.9985 271 63.5C271 82.0015 256.002 97 237.5 97H33.5C14.9985 97 0 82.0015 0 63.5C0 44.9985 14.9985 30 33.5 30ZM33.5 50C26.0442 50 20 56.0442 20 63.5C20 70.9558 26.0442 77 33.5 77H237.5C244.956 77 251 70.9558 251 63.5C251 56.0442 244.956 50 237.5 50H33.5Z" fill="white"/>
<path d="M140 142.5C140 135.044 146.044 129 153.5 129H242.5C249.956 129 256 135.044 256 142.5C256 149.956 249.956 156 242.5 156H153.5C146.044 156 140 149.956 140 142.5Z" fill="#C22B2D"/>
<path fill-rule="evenodd" clip-rule="evenodd" d="M153.5 109H242.5C261.002 109 276 123.998 276 142.5C276 161.002 261.002 176 242.5 176H153.5C134.998 176 120 161.002 120 142.5C120 123.998 134.998 109 153.5 109ZM153.5 129C146.044 129 140 135.044 140 142.5C140 149.956 146.044 156 153.5 156H242.5C249.956 156 256 149.956 256 142.5C256 135.044 249.956 129 242.5 129H153.5Z" fill="white"/>
<path d="M137 296.5C137 289.044 143.044 283 150.5 283H242.5C249.956 283 256 289.044 256 296.5C256 303.956 249.956 310 242.5 310H150.5C143.044 310 137 303.956 137 296.5Z" fill="#C22B2D"/>
<path fill-rule="evenodd" clip-rule="evenodd" d="M150.5 263H242.5C261.002 263 276 277.998 276 296.5C276 315.002 261.002 330 242.5 330H150.5C131.998 330 117 315.002 117 296.5C117 277.998 131.998 263 150.5 263ZM150.5 283C143.044 283 137 289.044 137 296.5C137 303.956 143.044 310 150.5 310H242.5C249.956 310 256 303.956 256 296.5C256 289.044 249.956 283 242.5 283H150.5Z" fill="white"/>
<path d="M20 217.5C20 210.044 26.0442 204 33.5 204H237.5C244.956 204 251 210.044 251 217.5C251 224.956 244.956 231 237.5 231H33.5C26.0442 231 20 224.956 20 217.5Z" fill="#C22B2D"/>
<path fill-rule="evenodd" clip-rule="evenodd" d="M33.5 184H237.5C256.002 184 271 198.998 271 217.5C271 236.002 256.002 251 237.5 251H33.5C14.9985 251 0 236.002 0 217.5C0 198.998 14.9985 184 33.5 184ZM33.5 204C26.0442 204 20 210.044 20 217.5C20 224.956 26.0442 231 33.5 231H237.5C244.956 231 251 224.956 251 217.5C251 210.044 244.956 204 237.5 204H33.5Z" fill="white"/>
<path d="M20 377.5C20 370.044 26.0442 364 33.5 364H237.5C244.956 364 251 370.044 251 377.5C251 384.956 244.956 391 237.5 391H33.5C26.0442 391 20 384.956 20 377.5Z" fill="#C22B2D"/>
<path fill-rule="evenodd" clip-rule="evenodd" d="M33.5 344H237.5C256.002 344 271 358.998 271 377.5C271 396.002 256.002 411 237.5 411H33.5C14.9985 411 0 396.002 0 377.5C0 358.998 14.9985 344 33.5 344ZM33.5 364C26.0442 364 20 370.044 20 377.5C20 384.956 26.0442 391 33.5 391H237.5C244.956 391 251 384.956 251 377.5C251 370.044 244.956 364 237.5 364H33.5Z" fill="white"/>
</svg>
