<svg width="35" height="35" viewBox="0 0 35 35" fill="none" xmlns="http://www.w3.org/2000/svg">
<rect width="35" height="35" rx="3" fill="#55ACEE"/>
<path d="M14.2892 26C21.8367 26 25.9642 19.4593 25.9642 13.7869C25.9642 13.6012 25.9642 13.4164 25.9525 13.2325C26.7558 12.6246 27.4491 11.8718 28 11.0095C27.2512 11.3571 26.4568 11.5851 25.6433 11.686C26.4997 11.1493 27.1406 10.3054 27.4467 9.3114C26.6414 9.81129 25.7604 10.1636 24.8417 10.3531C24.223 9.66492 23.4047 9.20921 22.5134 9.05651C21.6222 8.9038 20.7077 9.06262 19.9114 9.50838C19.1152 9.95414 18.4816 10.662 18.1086 11.5224C17.7357 12.3828 17.6442 13.3478 17.8483 14.2681C16.217 14.1826 14.6211 13.7392 13.1642 12.9666C11.7073 12.1941 10.422 11.1097 9.39167 9.78388C8.86708 10.7289 8.70648 11.8475 8.94258 12.9121C9.17868 13.9766 9.79372 14.907 10.6625 15.5138C10.0094 15.4934 9.3706 15.309 8.8 14.976V15.0309C8.80026 16.0219 9.12816 16.9823 9.72811 17.7492C10.3281 18.5162 11.1631 19.0424 12.0917 19.2388C11.4876 19.4109 10.8539 19.436 10.2392 19.312C10.5013 20.1649 11.0118 20.9108 11.6991 21.4454C12.3864 21.9799 13.2162 22.2764 14.0725 22.2934C13.2217 22.9927 12.2474 23.5097 11.2055 23.8148C10.1635 24.1199 9.07424 24.2072 8 24.0717C9.87629 25.3317 12.0596 26.0002 14.2892 25.9974" fill="white"/>
</svg>
