<svg width="35" height="35" viewBox="0 0 35 35" fill="none" xmlns="http://www.w3.org/2000/svg">
<rect width="35" height="35" rx="3" fill="#DF1E26"/>
<path fill-rule="evenodd" clip-rule="evenodd" d="M17.9226 8.0201C14.1961 8.29758 11.6588 10.3991 11.0904 13.6791C10.7184 15.8258 11.5183 17.8897 13.0552 18.7484C13.198 18.8282 13.3232 18.885 13.3333 18.8747C13.3747 18.8326 13.6228 17.8417 13.6057 17.7866C13.5956 17.7539 13.5351 17.6003 13.4713 17.4454C12.9742 16.2397 12.9036 14.2886 13.3134 13.0824C13.6245 12.1668 14.3169 11.4275 15.337 10.9215C15.8721 10.6561 16.2288 10.5305 16.7733 10.4159C18.4871 10.0549 20.3577 10.3803 21.4958 11.2374C22.8431 12.2521 23.375 13.812 23.033 15.7462C22.7368 17.4222 21.8484 18.8578 20.7779 19.3905C19.9953 19.7799 18.9541 19.7248 18.0458 19.246C17.5717 18.9961 17.3527 18.6139 17.3552 18.0409C17.3561 17.8483 17.3855 17.6286 17.4314 17.4721C17.4725 17.3319 17.62 16.8377 17.759 16.3738C18.2381 14.7762 18.4234 13.7947 18.3313 13.3415C18.1929 12.6604 17.6975 12.225 17.0153 12.1849C16.2019 12.137 15.503 12.5803 15.1109 13.3928C14.6885 14.268 14.6362 15.1012 14.9353 16.1884L15.0516 16.6111L14.9703 17.1001C14.8718 17.6931 14.5499 18.9462 14.0626 20.6339C13.2357 23.4976 12.9892 24.5662 12.8875 25.7289C12.8449 26.2153 12.854 26.3752 12.9867 27.4705C13.0234 27.773 13.0682 28.011 13.0864 27.9996C13.1046 27.9882 13.3579 27.6557 13.6494 27.2608C14.6164 25.9505 15.2455 24.5512 16.2898 21.3878L16.6739 20.224L16.9042 20.4545C17.5347 21.0855 18.536 21.4553 19.736 21.5003C20.229 21.5188 20.3792 21.5094 20.7494 21.4374C23.1527 20.9695 25.22 18.8841 25.8129 16.3296C26.1138 15.033 26.0504 13.656 25.6325 12.4121C24.8355 10.0396 22.7852 8.44388 20.0637 8.07796C19.5235 8.00532 18.4946 7.97751 17.9226 8.0201Z" fill="white"/>
</svg>
