<svg width="35" height="35" viewBox="0 0 35 35" fill="none" xmlns="http://www.w3.org/2000/svg">
<rect width="35" height="35" rx="3" fill="#4C69BA"/>
<path d="M22.9188 7.00762H20.1973C19.5149 6.96904 18.8321 7.07728 18.1951 7.32503C17.5581 7.57279 16.9816 7.95429 16.5046 8.4438C16.0276 8.93331 15.6612 9.51944 15.43 10.1626C15.1988 10.8058 15.1082 11.4911 15.1644 12.1723V14.558H12.4282C12.3147 14.558 12.2057 14.6031 12.1254 14.6835C12.0451 14.7638 12 14.8727 12 14.9863V18.4369C12 18.5505 12.0451 18.6594 12.1254 18.7397C12.2057 18.82 12.3147 18.8651 12.4282 18.8651H15.1644V27.5718C15.1644 27.6853 15.2095 27.7943 15.2898 27.8746C15.3701 27.9549 15.4791 28 15.5926 28H19.1627C19.2763 28 19.3852 27.9549 19.4655 27.8746C19.5459 27.7943 19.591 27.6853 19.591 27.5718V18.8606H22.7903C22.8466 18.8606 22.9022 18.8496 22.9542 18.828C23.0062 18.8065 23.0534 18.775 23.0931 18.7352C23.1329 18.6954 23.1644 18.6482 23.186 18.5963C23.2075 18.5443 23.2186 18.4886 23.2186 18.4324V14.9817C23.2186 14.8682 23.1734 14.7593 23.0931 14.6789C23.0128 14.5986 22.9039 14.5535 22.7903 14.5535H19.5898V12.5296C19.5898 11.5593 19.8209 11.0646 21.0853 11.0646H22.9188C23.0324 11.0646 23.1413 11.0194 23.2216 10.9391C23.3019 10.8588 23.347 10.7499 23.347 10.6363V7.44036C23.3476 7.38374 23.337 7.32757 23.3157 7.2751C23.2945 7.22262 23.263 7.17488 23.2232 7.13463C23.1834 7.09439 23.136 7.06244 23.0837 7.04064C23.0315 7.01884 22.9754 7.00762 22.9188 7.00762V7.00762Z" fill="white"/>
</svg>
